<?xml version="1.0" encoding="utf-8"?>
<!-- Generator: Adobe Illustrator 19.0.0, SVG Export Plug-In . SVG Version: 6.00 Build 0)  -->
<svg version="1.1" xmlns="http://www.w3.org/2000/svg" xmlns:xlink="http://www.w3.org/1999/xlink" x="0px" y="0px"
	 viewBox="0 0 1543 595.3" style="enable-background:new 0 0 1543 595.3;" xml:space="preserve">
<style type="text/css">
	.st0{display:none;}
	.st1{display:inline;}
</style>
<g id="bakwagen" class="st0">
	<g class="st1">
		<path d="M93,320.2c0-42.4,0-84.9,0-127.8c75.8,0,151.7,0,227.8,0c0,42.4,0,84.8,0,127.8C245,320.2,169.3,320.2,93,320.2z"/>
		<path d="M331.3,231.3c19,0,37.1,1.1,54.9-0.4c14.1-1.2,21.4,3.4,25.7,16.8c3.8,11.8,10,22.8,15.1,34.1c0.4,0.9,0.7,1.9,0.7,2.8
			c0,22.5,0,44.9,0,67.9c-11.3,0-22.4,0-33.6,0c-4.4-15.9-14-26.6-31.5-26.5c-17.6,0-27.4,10.7-31.9,27c-17.2,0-34.1,0-51.5,0
			c-1.9-8.9-6.3-16.3-14.6-22.4c22.6,0,44.3,0,66.6,0C331.3,297.3,331.3,264.6,331.3,231.3z M411.2,282.5
			c-5.2-11.8-9.9-22.9-15-33.8c-0.7-1.4-3.5-2.4-5.4-2.5c-6.5-0.3-13-0.1-19.4-0.1c-7.4,0-14.9,0-22.4,0c0,12.5,0,24.3,0,36.4
			C369.5,282.5,389.7,282.5,411.2,282.5z"/>
		<path d="M195.1,357.7c0,13.8-11.5,25.3-25.5,25.4c-13.7,0.1-25.6-12-25.6-26c0-13.5,11.7-25.3,25.1-25.3
			C183.8,331.7,195.1,343,195.1,357.7z M169.8,364.8c4.2-0.1,7.4-3.7,7.2-7.9c-0.2-3.9-3.6-7-7.6-6.9c-4.1,0.1-7.5,3.8-7.3,7.8
			C162.3,361.6,166,365,169.8,364.8z"/>
		<path d="M388.1,357.6c0,14-11.9,25.7-25.9,25.5c-13.7-0.2-25.2-12-25.2-25.9c0-13.7,11.8-25.5,25.5-25.4
			C376.8,331.9,388.2,343.3,388.1,357.6z M370.1,357.1c-0.1-3.9-3.5-7.1-7.4-7.1c-4.2,0.1-7.7,3.6-7.5,7.6c0.1,3.7,3.7,7.1,7.6,7.2
			C366.7,364.9,370.1,361.3,370.1,357.1z"/>
		<path d="M273.3,357.6c0,14.1-11.8,25.7-25.9,25.5c-13.7-0.2-25.2-12.1-25.2-25.9c0.1-13.8,11.8-25.5,25.6-25.4
			C262,331.8,273.3,343.2,273.3,357.6z M255.2,357.6c0.1-3.9-3.1-7.5-7-7.6c-4.2-0.2-7.9,3.1-8,7.1c-0.1,3.9,3.6,7.6,7.6,7.7
			C251.6,364.9,255.1,361.5,255.2,357.6z"/>
		<path d="M230.6,330.7c-7.1,5.6-12.1,11.9-13.9,20.4c-0.2,0.9-2.1,2-3.2,2c-4,0.2-7.9,0.1-12.3,0.1c-2-9.1-6.2-16.8-14.8-22.5
			C201.5,330.7,215.7,330.7,230.6,330.7z"/>
		<path d="M120.3,330.5c11,0,21.2,0,32.3,0c-7.3,5.7-12.2,12.2-14.2,20.6c-0.2,0.9-2.9,1.8-4.4,1.7c-4.5-0.1-9-0.7-13.5-1.2
			c-0.2,0-0.2-1.2-0.2-1.9C120.3,343.5,120.3,337.2,120.3,330.5z"/>
	</g>
</g>
<g id="truck">
	<path d="M930.2,314.8c0-49.9,0-99.5,0-149.4c123,0,245.7,0,368.8,0c0,49.8,0,99.4,0,149.4C1176.1,314.8,1053.3,314.8,930.2,314.8z"
		/>
	<path d="M1363.6,355.4c-12.9,0-25.5,0-38.3,0c0-55.3,0-110.2,0-165.6c2.2,0,4.2,0,6.1,0c31,0,62,0,93,0.1c2.9,0,7.1-0.2,8.3,1.4
		c2.8,4,5.8,9,5.9,13.7c0.4,15.6-0.3,31.3-0.6,46.9c0,2,0,3.9,0,6.1c2.1,0.2,3.7,0.3,4.8,0.4c2,3.9,4.2,7.3,5.6,10.9
		c1.8,4.8,4.2,9.8,4.3,14.7c0.4,23.6,0.2,47.3,0.2,71.5c-8.5,0-16.9,0-25.6,0c-1.3-9.7-5.3-18-13.5-23.9c-5.9-4.2-12.5-6.2-19.7-5.8
		C1378.3,326.7,1367.1,337.6,1363.6,355.4z M1360,210.6c0,15,0,29.7,0,44.5c22.5,0,44.6,0,66.7,0c0-15.1,0-29.8,0-44.5
		C1404.3,210.6,1382.2,210.6,1360,210.6z"/>
	<path d="M1220.5,357.9c-0.3,14.1-11.8,25.3-25.7,25.2c-14.1-0.1-25.9-12.5-25.5-26.6c0.4-13.4,12.4-24.8,25.9-24.7
		C1209.4,331.9,1220.8,343.8,1220.5,357.9z M1194.9,364.8c3.8,0.1,7.4-3.2,7.6-7.1c0.2-4.2-3.1-7.7-7.3-7.8c-4.2,0-7.6,3.3-7.6,7.5
		C1187.5,361.2,1191,364.7,1194.9,364.8z"/>
	<path d="M1421.1,357.2c0.1,14.1-11.5,25.8-25.6,25.9c-13.7,0-25.4-11.7-25.5-25.6c-0.1-13.8,11.5-25.7,25.2-25.8
		C1409.4,331.7,1421,343.1,1421.1,357.2z M1395.3,350.1c-3.8,0.1-7.3,3.6-7.3,7.4c0,4,3.7,7.5,7.8,7.4c3.9-0.1,7.2-3.5,7.3-7.4
		C1403,353.4,1399.5,350,1395.3,350.1z"/>
	<path d="M1072.1,357.4c0.1,13.8-11.3,25.4-25.3,25.7c-13.6,0.3-25.7-11.6-25.8-25.2c-0.1-14.2,11.5-26.1,25.3-26.1
		C1060.6,331.8,1071.9,343.1,1072.1,357.4z M1054,357.2c-0.1-4.1-3.7-7.4-7.9-7.2c-3.9,0.2-7.2,3.8-7.1,7.5c0.2,4,3.9,7.4,8,7.2
		C1050.9,364.6,1054.1,361.1,1054,357.2z"/>
	<path d="M999.1,357.8c0,13.8-11.7,25.3-25.6,25.3c-13.9,0-25.6-12-25.5-26.1c0.1-13.6,11.8-25.2,25.2-25.2
		C987.8,331.8,999.1,343.2,999.1,357.8z M981.1,357.6c0.1-4-3-7.2-7.1-7.5c-4.1-0.2-7.8,3.2-7.9,7.2c-0.1,3.7,3.3,7.3,7.2,7.5
		C977.3,365,980.9,361.7,981.1,357.6z"/>
	<path d="M1293.1,357.8c-0.1,13.8-11.7,25.3-25.6,25.3c-13.8,0-25.6-12-25.4-26.1c0.1-13.5,11.8-25.2,25.3-25.2
		C1281.8,331.8,1293.1,343.2,1293.1,357.8z M1267.7,350.1c-3.9-0.1-7.4,3.2-7.6,7c-0.2,3.9,3.5,7.7,7.5,7.8c4.1,0,7.6-3.5,7.5-7.6
		C1275,353.3,1271.7,350.1,1267.7,350.1z"/>
	<path d="M1037.5,326.2c-12.7,5.4-20.3,14.5-22.6,28.2c-3.2,0-6.3,0-9.5,0c-2.4-13.6-9.9-22.8-22.4-28.2
		C1001.1,326.2,1019.3,326.2,1037.5,326.2z"/>
	<path d="M1235.9,354.1c-3.1,0-6.1,0-9.3,0c-2.4-13.3-9.6-22.7-22.4-27.7c18,0,36,0,55.4,0C1246,331.7,1238.2,340.6,1235.9,354.1z"
		/>
	<path d="M1314.5,326.6c0,9.2,0,18.2,0,27.4c-5.1,0-10,0-15.2,0c-2.3-13-9.6-22.2-23.4-27.4C1289.4,326.6,1301.7,326.6,1314.5,326.6
		z"/>
	<path d="M1163.4,354.2c-3.2,0-6,0-9.2,0c0-9.1,0-18.1,0-27.6c10.3,0,20.9,0,32.3,0C1173.5,331.6,1165.7,340.4,1163.4,354.2z"/>
	<path d="M1055.7,326.3c10.2,0,20.4,0,31,0c0,9.2,0,18.2,0,27.7c-2.6,0-5.3,0-8.5,0C1075.9,341,1068.7,331.6,1055.7,326.3z"/>
	<path d="M965.6,326.1c-15.4,7.5-19,11.8-24,28c-1.6,0-3.2,0-5.6,0c0-4.5,0-9.1,0-13.7c0-4.6,0-9.2,0-14c1.1-0.2,1.7-0.3,2.3-0.3
		C947,326.1,955.6,326.1,965.6,326.1z"/>
</g>
<g id="bestelwagen" class="st0">
	<path class="st1" d="M542.2,355c0-54.5,0-108.4,0-162.7c61.2,0,122.2,0,183.5,0c0,54.1,0,108,0,162.7c-1.6,0-3.2,0-4.7,0
		c-26.8,0-53.6,0-80.4,0.1c-3.4,0-5.1-0.4-6-4.5c-3.2-15.1-16.2-25-31.4-24.7c-14.7,0.3-27.1,10.8-30.5,25.6
		c-0.3,1.4-2.3,3.4-3.5,3.4C560.4,355.1,551.6,355,542.2,355z"/>
	<path class="st1" d="M738.5,355c0-43.5,0-86.4,0-129.8c8.1,0,15.8,0,23.6,0c8.7,0,17.3-0.2,26,0.1c2,0.1,4.5,1.2,5.8,2.7
		c16.2,19.2,32.2,38.5,48.2,57.9c0.9,1.1,1.8,2.6,1.8,3.9c0.1,21.5,0.1,42.9,0.1,65.1c-6.7,0-13.2,0.1-19.6-0.2
		c-0.8,0-2-2.3-2.3-3.6c-4.7-20.1-24.7-30.7-43.6-22.6c-9.8,4.2-16,11.9-18.2,22.3c-0.7,3.4-2,4.4-5.2,4.2
		C749.5,354.8,744.1,355,738.5,355z M752,279.1c24.1,0,47.7,0,71.7,0c-0.6-1-0.8-1.6-1.2-2c-10.2-12.5-20.3-25-30.7-37.3
		c-1.3-1.5-4-2.3-6.1-2.4c-6.1-0.3-12.3-0.1-18.5-0.1c-5.1,0-10.2,0-15.2,0C752,251.7,752,265.3,752,279.1z"/>
	<path class="st1" d="M816.7,357.2c0.1,14-11.5,25.8-25.7,25.9c-13.8,0.1-25.7-12-25.7-26c0-13.4,11.6-25,25.2-25.3
		C804.5,331.5,816.5,343.2,816.7,357.2z M798.6,357.6c0.1-4.1-3.4-7.6-7.5-7.6c-4,0-7.3,3.2-7.5,7.1c-0.1,4,3.4,7.7,7.5,7.7
		C794.8,364.8,798.5,361.3,798.6,357.6z"/>
	<path class="st1" d="M629.4,358.1c-0.5,14.1-12.1,25.2-26,24.9c-13.9-0.3-25.6-12.6-25.2-26.4c0.4-13.8,12.4-25.2,26.2-24.9
		C618.5,332.1,629.9,344.1,629.4,358.1z M611.3,357.4c-0.1-4-3.3-7.3-7.2-7.4c-4.1-0.1-7.7,3.4-7.7,7.4c0,3.9,3.9,7.5,7.8,7.4
		C608.2,364.7,611.3,361.4,611.3,357.4z"/>
</g>
</svg>
